<svg viewBox="0 0 173.283 120.4" version="1.1" id="svg480" width="173.283" height="120.4" xmlns="http://www.w3.org/2000/svg">
  <defs id="defs470">
    <style id="style468">
      .cls-1{fill:#231f20}
    </style>
  </defs>
  <path class="cls-1" d="m92.103 41.7-10.41 9 8.83 7 10.64-10.81zm0 0-10.41 9 8.83 7 10.64-10.81zM86.223 0C17.153 0 0 34.748 0 60.268 0 85.788 17.903 120.4 86.973 120.4s86.31-34.756 86.31-60.276c0-25.52-17.97-60.124-87.06-60.124Zm74.41 80.5-59.096-33.273-9.113 10.725 17.269 14.878-21-10.82-16 13.79 16.554-13.61-13.184-6.68-35.29 30.35 31.67-32.16-11.61-6-48.86 42 52.12-53 14.06 11.13 19.13-19.42 19.93 15.75 7.62-21.38 45.6 36.13-45.687-37.108-15.47 15.59zm-78.94-29.8 19.83 14.25-.36-18.06-9.06-5.19zm10.41-9-10.41 9 27.976 22.19-7.591-25.438z" id="path474" style="fill:#0cbfff;fill-opacity:1"/>
  <path class="cls-1" d="M81.983 114.7c-88.467-72-44.234-36 0 0zm0-1.48c-88.467-71.013-44.234-35.507 0 0z" id="path476"/>
</svg>
